PathFileType	4	(X/Y/Z)	C:\Users\86182\Documents\cortex\Trimmed_M3_L14.trc
DataRate	CameraRate	NumFrames	NumMarkers	Units	OrigDataRate	OrigDataStartFrame	OrigNumFrames
100.00	100.00	       70	2	mm	100.00	721	       901
Frame#	Time	gripper			box			
		X1	Y1	Z1	X2	Y2	Z2	

721	7.200	273.47263	149.80602	292.84607	274.93839	147.71350	157.11853	
722	7.210	273.45435	149.80396	292.86127	274.93195	147.71179	157.11627	
723	7.220	273.48007	149.80389	292.84430	274.95215	147.72124	157.12003	
724	7.230	273.48911	149.80009	292.84399	274.88272	147.70357	157.13458	
725	7.240	273.47089	149.79784	292.85947	274.90018	147.70927	157.13107	
726	7.250	273.47794	149.79547	292.85834	274.90543	147.73358	157.13725	
727	7.260	273.49121	149.79288	292.85342	274.92404	147.69542	157.11508	
728	7.270	273.46866	149.79173	292.87006	274.88675	147.71498	157.14398	
729	7.280	273.47675	149.79214	292.86411	274.89325	147.71252	157.12819	
730	7.290	273.46866	149.79173	292.87006	274.90283	147.70229	157.12207	
731	7.300	273.47101	149.79160	292.86874	274.88708	147.71930	157.13222	
732	7.310	273.48117	149.79561	292.85596	274.85281	147.72778	157.15382	
733	7.320	273.45752	149.80411	292.85892	274.91187	147.70413	157.11873	
734	7.330	273.46725	149.79924	292.85977	274.86209	147.72134	157.13081	
735	7.340	273.51111	149.79320	292.83975	274.91440	147.71138	157.11478	
736	7.350	273.48187	149.79948	292.84970	274.88809	147.73399	157.12360	
737	7.360	273.49631	149.80231	292.83594	274.86914	147.72696	157.11703	
738	7.370	273.45410	149.80344	292.86221	274.88989	147.70641	157.13004	
739	7.380	273.45819	149.80307	292.86005	274.91876	147.70212	157.11124	
740	7.390	273.46829	149.79498	292.86548	274.89255	147.70320	157.12816	
741	7.400	273.44818	149.80046	292.87057	274.90192	147.72498	157.14748	
742	7.410	273.46866	149.79173	292.87006	274.85779	147.70631	157.14876	
743	7.420	273.47998	149.79231	292.86169	274.90283	147.70229	157.12207	
744	7.430	273.47998	149.79231	292.86169	274.88931	147.70572	157.13255	
745	7.440	273.46466	149.79805	292.86328	274.90649	147.70419	157.12236	
746	7.450	273.47452	149.79311	292.86414	274.89969	147.70007	157.12674	
747	7.460	273.49075	149.79184	292.85529	274.94794	147.72150	157.11951	
748	7.470	273.48413	149.79935	292.84842	274.92651	147.69794	157.11055	
749	7.480	273.50543	149.79526	292.84042	274.94952	147.70763	157.11377	
750	7.490	273.50772	149.79333	292.84180	274.90979	147.72380	157.12302	
751	7.500	273.50287	149.79895	292.83661	274.90930	147.69861	157.12172	
752	7.510	273.51886	149.79523	292.83157	274.87262	147.74805	157.14355	
753	7.520	273.47437	149.80014	292.85370	274.86258	147.74652	157.13831	
754	7.530	273.47156	149.79514	292.86307	274.86200	147.71765	157.12761	
755	7.540	273.47232	149.80162	292.85284	274.82867	147.72919	157.14139	
756	7.550	273.47339	149.79739	292.85846	274.81677	147.74294	157.15649	
757	7.560	273.45663	149.79764	292.86920	274.84750	147.72906	157.14287	
758	7.570	273.45728	149.79660	292.87036	274.84259	147.71733	157.14735	
759	7.580	273.47354	149.79198	292.86649	274.89951	147.70175	157.12498	
760	7.590	273.46887	149.79932	292.85858	274.91800	147.72868	157.13165	
761	7.600	273.47461	149.80066	292.85278	274.83881	147.72240	157.15860	
762	7.610	273.48849	149.79196	292.85657	274.87296	147.73900	157.13683	
763	7.620	273.47867	149.79688	292.85574	274.93237	147.71318	157.11945	
764	7.630	273.48816	149.80383	292.83902	274.93298	147.73581	157.12943	
765	7.640	273.49454	149.79930	292.84161	275.02707	147.71480	157.07167	
766	7.650	273.49704	149.79965	292.83942	274.96060	147.71609	157.10957	
767	7.660	273.48706	149.80716	292.83478	274.97800	147.70087	157.09662	
768	7.670	273.49838	149.80852	292.82526	274.99734	147.71703	157.09254	
769	7.680	273.47415	149.79962	292.85461	274.90256	147.72472	157.12338	
770	7.690	273.45789	149.80092	292.86346	274.90833	147.71747	157.12328	
771	7.700	273.46851	149.80249	292.85410	274.93195	147.71069	157.12755	
772	7.710	273.47662	149.79755	292.85611	274.88834	147.70697	157.13049	
773	7.720	273.44366	149.80238	292.87070	274.84024	147.70789	157.15915	
774	7.730	273.46866	149.79173	292.87006	274.90509	147.72241	157.14308	
775	7.740	273.46930	149.79692	292.86188	274.87540	147.70139	157.14207	
776	7.750	273.45660	149.80299	292.86121	274.93832	147.73000	157.12903	
777	7.760	273.47958	149.79553	292.85715	274.88861	147.71552	157.13168	
778	7.770	273.48184	149.79539	292.85587	274.89673	147.70581	157.12599	
779	7.780	273.50381	149.79504	292.84183	274.91489	147.70323	157.11792	
780	7.790	273.49252	149.79819	292.84460	274.93237	147.70047	157.10759	
781	7.800	273.48663	149.79973	292.84622	274.92270	147.71024	157.10368	
782	7.810	273.47662	149.79755	292.85611	274.97800	147.70042	157.09213	
783	7.820	273.52637	149.79216	292.83121	274.97855	147.71736	157.10378	
784	7.830	273.47635	149.79538	292.85953	274.96655	147.70557	157.10930	
785	7.840	273.47842	149.79222	292.86288	274.95358	147.70294	157.11621	
786	7.850	273.47385	149.79416	292.86301	274.90048	147.70647	157.12901	
787	7.860	273.43912	149.80432	292.87082	274.93311	147.70056	157.10802	
788	7.870	273.45078	149.80167	292.86707	274.86563	147.72508	157.15056	
789	7.880	273.47958	149.79553	292.85715	274.89005	147.71243	157.13957	
790	7.890	273.47086	149.79619	292.86197	274.90833	147.71339	157.14085	
